<svg viewBox="-8 -8 116 116" class="js-logo-icon" height="100" width="100"><g class="h-fill-brand js-logo-particles"><path></path><path></path><path></path><path></path><path></path><path></path><path></path><path></path><path></path><path></path><path></path><path></path></g><g class="h-fill-brand js-logo-character" transform="translate(-1.2246467991473533e-15, -1.2246467991473533e-15)"><path d="M16.812,83.188C4.4,70.771,4.4,29.229,16.812,16.812s53.959-12.416,66.376,0,12.416,53.959,0,66.376S29.229,95.6,16.812,83.188Z" class="js-logo-path"></path><g class="js-logo-face" transform="translate(0, -3.6739403974420594e-16)"><path d="M67.311,43.6a12.312,12.312,0,0,0-10.7,6.268,17.206,17.206,0,0,0-13.228,0,12.343,12.343,0,1,0-10.7,18.462c.085,0,.162-.023.247-.025a17.227,17.227,0,0,0,34.128,0c.085,0,.162.025.247.025a12.365,12.365,0,0,0,0-24.73ZM50,78.223A12.378,12.378,0,0,1,37.635,65.858a2.473,2.473,0,1,1,4.946,0,7.419,7.419,0,0,0,14.838,0,2.473,2.473,0,1,1,4.946,0A12.378,12.378,0,0,1,50,78.223Z" class="h-fill-page"></path><path d="M35.162,57.2a2.473,2.473,0,0,0-4.946,0,2.473,2.473,0,0,1-4.946,0,7.419,7.419,0,1,1,14.838,0,2.473,2.473,0,0,1-4.946,0ZM72.257,59.675A2.471,2.471,0,0,1,69.784,57.2a2.473,2.473,0,1,0-4.946,0,2.473,2.473,0,1,1-4.946,0,7.419,7.419,0,1,1,14.838,0A2.471,2.471,0,0,1,72.257,59.675Z" class="js-logo-eyes1" fill-opacity="1"></path><path d="M37.635,58.439H27.743a2.473,2.473,0,0,1,0-4.946h9.892a2.473,2.473,0,0,1,0,4.946ZM72.257,58.439H62.365a2.473,2.473,0,0,1,0-4.946h9.892a2.473,2.473,0,0,1,0,4.946Z" class="js-logo-eyes2" fill-opacity="0"></path></g></g></svg>